# xmcd
#
# Track frame offsets:
# 150
# 16712
# 33049
# 43394
# 59639
# 76062
# 90374
# 104426
# 126505
# 139496
# 151820
# 159307
#
# Disc length: 2334 seconds
#
#
# Revision: 4
# Processed by: cddbd v1.5.2PL0 Copyright (c) Steve Scherf et al.
# Submitted via: FreeRIP 2.96 
#
DISCID=92091c0c
DTITLE=Willie Nelson - Willie Nelson Live In Concert
DYEAR=1996
DGENRE=Country
TTITLE0=Georgia On My Mind
TTITLE1=Stardust
TTITLE2=On The Road Again
TTITLE3=You Were Always On My Mind
TTITLE4=Angel Flying Too Close To The Ground
TTITLE5=Good Hearted Woman
TTITLE6=Blue Eyes Crying In The Rain
TTITLE7=City Of New Orleans
TTITLE8=To All The Girls I've Loved Before
TTITLE9=Seven Spanish Angels
TTITLE10=Lukenbach Texas
TTITLE11=Whiskey River
EXTD=
EXTT0=
EXTT1=
EXTT2=
EXTT3=
EXTT4=
EXTT5=
EXTT6=
EXTT7=
EXTT8=
EXTT9=
EXTT10=
EXTT11=
PLAYORDER=
